HIERARCHY
ROOT Hips
{
 OFFSET 0.000000 0.000000 0.000000
 CHANNELS 6 Xposition Yposition Zposition Yrotation Xrotation Zrotation
 JOINT Chest
 {
  OFFSET 0.000000 9.585900 0.002600
  CHANNELS 3 Yrotation Xrotation Zrotation
  JOINT Chest2
  {
   OFFSET 0.000000 9.601200 -0.005300
   CHANNELS 3 Yrotation Xrotation Zrotation
   JOINT Chest3
   {
    OFFSET 0.000000 9.561800 0.000000
    CHANNELS 3 Yrotation Xrotation Zrotation
    JOINT Chest4
    {
     OFFSET 0.000000 9.552100 0.000000
     CHANNELS 3 Yrotation Xrotation Zrotation
     JOINT Neck
     {
      OFFSET 0.000000 14.453000 0.000000
      CHANNELS 3 Yrotation Xrotation Zrotation
      JOINT Head
      {
       OFFSET 0.000000 8.936500 -0.011300
       CHANNELS 3 Yrotation Xrotation Zrotation
       End Site
       {
        OFFSET 0.000000 17.073600 -0.006000
       }
      }
     }
     JOINT RightCollar
     {
      OFFSET -2.921100 9.558500 0.000000
      CHANNELS 3 Yrotation Xrotation Zrotation
      JOINT RightShoulder
      {
       OFFSET -13.519700 0.000000 0.000000
       CHANNELS 3 Yrotation Xrotation Zrotation
       JOINT RightElbow
       {
        OFFSET 0.000000 -29.696600 0.000000
        CHANNELS 3 Yrotation Xrotation Zrotation
        JOINT RightWrist
        {
         OFFSET 0.000000 -24.004700 0.000000
         CHANNELS 3 Yrotation Xrotation Zrotation
         End Site
         {
          OFFSET 0.000000 -17.728500 0.000000
         }
        }
       }
      }
     }
     JOINT LeftCollar
     {
      OFFSET 2.921100 9.558500 0.000000
      CHANNELS 3 Yrotation Xrotation Zrotation
      JOINT LeftShoulder
      {
       OFFSET 13.519700 0.000000 0.000000
       CHANNELS 3 Yrotation Xrotation Zrotation
       JOINT LeftElbow
       {
        OFFSET 0.000000 -29.696600 0.000000
        CHANNELS 3 Yrotation Xrotation Zrotation
        JOINT LeftWrist
        {
         OFFSET 0.000000 -24.004700 0.000000
         CHANNELS 3 Yrotation Xrotation Zrotation
         End Site
         {
          OFFSET 0.000000 -17.728500 0.000000
         }
        }
       }
      }
     }
    }
   }
  }
 }
 JOINT RightHip
 {
  OFFSET -7.771700 -0.012900 -0.001300
  CHANNELS 3 Yrotation Xrotation Zrotation
  JOINT RightKnee
  {
   OFFSET 0.000000 -40.869800 0.001200
   CHANNELS 3 Yrotation Xrotation Zrotation
   JOINT RightAnkle
   {
    OFFSET 0.000000 -39.717900 0.002100
    CHANNELS 3 Yrotation Xrotation Zrotation
    JOINT RightToe
    {
     OFFSET 0.000000 -4.965400 11.033500
     CHANNELS 3 Yrotation Xrotation Zrotation
     End Site
     {
      OFFSET 0.000000 -1.423100 5.872300
     }
    }
   }
  }
 }
 JOINT LeftHip
 {
  OFFSET 7.771700 -0.012900 -0.001300
  CHANNELS 3 Yrotation Xrotation Zrotation
  JOINT LeftKnee
  {
   OFFSET 0.000000 -40.869800 0.001200
   CHANNELS 3 Yrotation Xrotation Zrotation
   JOINT LeftAnkle
   {
    OFFSET 0.000000 -39.717900 0.002100
    CHANNELS 3 Yrotation Xrotation Zrotation
    JOINT LeftToe
    {
     OFFSET 0.000000 -4.965400 11.033500
     CHANNELS 3 Yrotation Xrotation Zrotation
     End Site
     {
      OFFSET 0.000000 -1.423100 5.872300
     }
    }
   }
  }
 }
}
MOTION
Frames: 15
Frame Time: 0.008333
0.000000 85.388000 0.000000 0.000000 -5.767877 0.000000 0.000000 11.653817 0.000000 0.000000 -5.885947 0.000000 0.000000 -0.000000 0.000000 0.000000 -0.000000 0.000000 0.000000 12.528835 0.000000 0.000000 0.711642 0.000000 0.000000 -0.000000 0.000000 0.000000 0.000000 -90.000000 0.000000 -2.309062 0.000000 0.000000 2.309062 0.000000 0.000000 -0.000000 0.000000 0.000000 -0.000000 90.000000 0.000000 -2.309062 0.000000 0.000000 2.309062 0.000000 0.000000 8.520406 0.000000 0.000000 1.905762 0.000000 -0.000000 -4.658285 0.000000 0.000000 -0.000000 0.000000 0.000000 8.520406 0.000000 0.000000 1.905762 0.000000 -0.000000 -4.658285 0.000000 0.000000 -0.000000 0.000000
-64.373856 46.738603 1.629067 -175.586850 -27.867885 0.536311 1.493119 16.350199 5.980784 0.084650 1.765491 0.659636 0.152070 2.935107 1.098792 1.311527 14.346324 5.560437 9.252346 22.503405 -3.222085 17.526895 6.941780 -8.199618 -4.451872 -0.184283 -3.152688 5.076154 -8.430544 -21.147059 -69.683821 -73.487935 114.925820 3.944498 9.909348 -15.682109 -7.579875 -7.521481 7.752519 -11.625675 -43.090908 71.878548 -34.895828 -23.014104 26.822730 -4.266236 12.956159 24.567553 14.442411 -57.662264 -24.888158 -158.226728 76.551166 -151.566069 -10.605752 -13.696064 -0.465794 0.083369 -0.400433 -0.024767 7.430553 -59.290950 -3.136757 -86.189340 82.447937 -92.875327 1.845611 -4.213119 7.562179 0.186947 0.374869 0.139841
-64.376184 46.741062 1.633136 -175.580174 -27.828517 0.557997 1.556490 16.304640 6.035669 0.088820 1.758487 0.662817 0.159016 2.923775 1.104310 1.349725 14.310570 5.599141 9.827297 22.536165 -3.035298 18.511094 7.053298 -7.999995 -4.502589 -0.222283 -3.135742 5.024389 -8.373491 -21.211264 -69.812979 -73.512876 115.076328 3.956530 9.915602 -15.673345 -7.670747 -7.636061 7.829400 -11.931264 -43.157687 72.028203 -34.633612 -22.487996 26.564617 -4.179250 13.028393 24.751773 14.417100 -57.692971 -24.960292 -158.327422 76.567944 -151.657939 -10.532098 -13.752811 -0.485609 0.055221 -0.359452 -0.045855 7.482695 -59.321677 -3.205054 -86.091645 82.450508 -92.776414 1.869658 -4.190817 7.569253 0.162701 0.355559 0.127207
-64.377663 46.745242 1.635782 -175.568239 -27.796829 0.575103 1.607953 16.267914 6.091242 0.092633 1.751653 0.665898 0.165328 2.912767 1.109731 1.384863 14.275569 5.636783 10.352205 22.561411 -2.845406 19.405242 7.143256 -7.782737 -4.541645 -0.257645 -3.127158 5.024174 -8.352523 -21.247078 -69.783398 -73.544808 115.022117 3.937710 9.949943 -15.691388 -7.747399 -7.752141 7.898141 -12.224648 -43.249837 72.194761 -34.326364 -21.996977 26.271860 -4.114624 13.155210 24.856557 14.425046 -57.716658 -25.022582 -158.344545 76.571061 -151.659572 -10.539093 -13.758233 -0.467772 0.076256 -0.361200 -0.068715 7.539550 -59.340682 -3.279704 -85.978753 82.452192 -92.654171 1.886114 -4.194135 7.561991 0.148738 0.356423 0.115514
-64.379880 46.749981 1.639184 -175.556404 -27.759842 0.600452 1.649622 16.225565 6.136518 0.065586 1.748912 0.636541 0.203085 2.897910 1.146595 1.416719 14.240539 5.673890 10.822733 22.580574 -2.653558 20.201716 7.213521 -7.549017 -4.572976 -0.285668 -3.124809 5.035892 -8.336869 -21.279951 -69.752856 -73.575482 114.955500 3.917155 9.986757 -15.705368 -7.806954 -7.861580 7.961665 -12.511303 -43.363466 72.375670 -33.970271 -21.539981 25.952804 -4.077021 13.330706 24.889650 14.449975 -57.743827 -25.096953 -158.391250 76.581183 -151.708218 -10.529156 -13.756814 -0.453752 0.073419 -0.363534 -0.075246 7.592155 -59.369680 -3.351268 -85.879648 82.459844 -92.558885 1.886905 -4.174814 7.565665 0.145723 0.340911 0.104026
-64.383640 46.756066 1.641579 -175.554771 -27.730474 0.641845 1.688110 16.189503 6.168623 0.046081 1.748469 0.606434 0.232659 2.879458 1.184383 1.446450 14.203695 5.711413 11.235164 22.598951 -2.459479 20.893206 7.273070 -7.296994 -4.598033 -0.302699 -3.128513 5.000551 -8.291756 -21.336849 -69.824580 -73.591335 115.025118 3.974218 9.956511 -15.637365 -7.851196 -7.959544 8.021176 -12.782891 -43.494313 72.562863 -33.576468 -21.115778 25.622197 -4.064332 13.544678 24.854999 14.446484 -57.758970 -25.185705 -158.517900 76.611692 -151.833350 -10.479106 -13.780919 -0.480295 0.021477 -0.344103 -0.057272 7.676590 -59.381842 -3.450233 -85.750771 82.472514 -92.428327 1.881119 -4.167216 7.569989 0.145374 0.335266 0.095265
-64.382199 46.761267 1.646117 -175.561441 -27.684022 0.657954 1.729128 16.134700 6.226542 0.061961 1.743088 0.609688 0.224082 2.864117 1.189631 1.473076 14.164666 5.748863 11.589554 22.619250 -2.263377 21.479437 7.326737 -7.027031 -4.613388 -0.312280 -3.140266 5.026625 -8.288585 -21.365529 -69.778269 -73.624901 114.941311 3.998455 9.969309 -15.595740 -7.877557 -8.048395 8.074304 -13.032124 -43.642302 72.754381 -33.173795 -20.722539 25.293993 -4.070043 13.792100 24.763164 14.461634 -57.795648 -25.236975 -158.565147 76.630562 -151.844965 -10.507090 -13.789177 -0.523639 0.055402 -0.341075 -0.044423 7.729881 -59.411001 -3.502514 -85.581138 82.478028 -92.247932 1.881396 -4.175611 7.568177 0.140346 0.349999 0.091477
-64.383304 46.767595 1.649252 -175.568225 -27.648488 0.687116 1.754776 16.091453 6.264334 0.078428 1.736047 0.617860 0.213330 2.849793 1.189641 1.495700 14.124854 5.785415 11.886169 22.638099 -2.066724 21.961816 7.368491 -6.742525 -4.620551 -0.319899 -3.156641 5.061701 -8.290028 -21.388544 -69.789088 -73.664978 114.925272 4.001585 10.011756 -15.573900 -7.890688 -8.134715 8.124380 -13.257365 -43.804388 72.947187 -32.791000 -20.352977 24.981143 -4.087498 14.066972 24.632579 14.499077 -57.820015 -25.296330 -158.597360 76.645030 -151.877019 -10.510230 -13.790118 -0.509288 0.050738 -0.338988 -0.058661 7.784548 -59.434642 -3.562030 -85.469459 82.476358 -92.139020 1.893244 -4.165265 7.572584 0.136141 0.342744 0.085360
-64.381473 46.773778 1.652372 -175.586696 -27.610634 0.699931 1.788064 16.047856 6.304630 0.083888 1.725375 0.638576 0.215259 2.837857 1.187759 1.515574 14.085350 5.820831 12.123670 22.651505 -1.872359 22.339039 7.391114 -6.449011 -4.625428 -0.328280 -3.171712 5.085496 -8.284019 -21.416483 -69.799460 -73.698594 114.917748 4.020880 10.043617 -15.533959 -7.897865 -8.219385 8.177958 -13.461239 -43.972677 73.138345 -32.436422 -20.002083 24.687559 -4.112800 14.352749 24.481985 14.520280 -57.852993 -25.320322 -158.649634 76.664114 -151.912154 -10.539344 -13.781968 -0.514983 0.057069 -0.343010 -0.052932 7.800710 -59.464137 -3.572521 -85.382634 82.450768 -92.050581 1.920148 -4.165920 7.562454 0.127640 0.339737 0.078577
-64.379640 46.780111 1.654777 -175.618060 -27.575791 0.711517 1.828130 16.005435 6.356212 0.099661 1.718938 0.647253 0.203665 2.822905 1.186369 1.532998 14.045882 5.854599 12.303441 22.659723 -1.684342 22.614302 7.396201 -6.154231 -4.629130 -0.337025 -3.183865 5.118401 -8.281666 -21.442985 -69.824919 -73.733756 114.925776 4.040283 10.082861 -15.484446 -7.894251 -8.296724 8.235374 -13.646212 -44.138973 73.328395 -32.102845 -19.677184 24.411595 -4.142018 14.629496 24.330740 14.539646 -57.885685 -25.331585 -158.727253 76.687726 -151.983084 -10.519525 -13.765898 -0.532611 0.092459 -0.354134 -0.023788 7.799893 -59.491560 -3.558045 -85.316616 82.445454 -91.988619 1.923830 -4.168380 7.562222 0.128926 0.339415 0.066289
-64.381622 46.786298 1.657110 -175.645514 -27.540848 0.735195 1.854540 15.961356 6.399292 0.108898 1.696994 0.685349 0.188908 2.839631 1.119673 1.540914 14.026064 5.870954 12.457220 22.624755 -1.478317 22.792170 7.389537 -5.866446 -4.615788 -0.376706 -3.155223 5.161589 -8.282720 -21.467793 -69.861990 -73.772190 114.947672 4.060377 10.127473 -15.423216 -7.863306 -8.391632 8.335824 -13.811244 -44.298267 73.515454 -31.782038 -19.387538 24.155737 -4.168775 14.882434 24.194730 14.577186 -57.917041 -25.369153 -158.812879 76.710215 -152.067718 -10.510861 -13.750407 -0.536857 0.077197 -0.363529 -0.021431 7.803166 -59.516642 -3.562160 -85.221599 82.454056 -91.910396 1.934123 -4.167455 7.564565 0.114987 0.335499 0.056720
-64.386009 46.791558 1.660579 -175.666603 -27.495921 0.761045 1.869180 15.910325 6.421191 0.109712 1.688662 0.687296 0.192854 2.818345 1.135234 1.554815 13.976697 5.908142 12.509647 22.649492 -1.331419 22.874380 7.375735 -5.593181 -4.635696 -0.373088 -3.178219 5.211436 -8.288172 -21.491830 -69.912686 -73.813688 114.987650 4.083169 10.173769 -15.350905 -7.843730 -8.433617 8.381397 -13.957392 -44.445305 73.699204 -31.461650 -19.139845 23.920571 -4.192800 15.103988 24.076186 14.629663 -57.957957 -25.425301 -158.887504 76.728004 -152.140804 -10.514076 -13.735026 -0.540332 0.073685 -0.372849 -0.015959 7.802045 -59.551345 -3.579548 -85.089217 82.449925 -91.787165 1.954899 -4.165132 7.545139 0.113247 0.335685 0.059119
-64.391629 46.794522 1.667795 -175.698393 -27.421795 0.791331 1.893045 15.831423 6.439550 0.110679 1.683930 0.679887 0.195100 2.794439 1.159550 1.565648 13.928051 5.944461 12.511095 22.674397 -1.202592 22.864490 7.359388 -5.341142 -4.658265 -0.372484 -3.196707 5.262237 -8.299830 -21.517336 -69.987983 -73.857604 115.057738 4.109415 10.219372 -15.262734 -7.816221 -8.466622 8.432007 -14.085802 -44.577600 73.881367 -31.129736 -18.937005 23.702278 -4.215222 15.293790 23.964317 14.709845 -58.027633 -25.497885 -158.908941 76.741989 -152.160364 -10.506936 -13.727721 -0.545835 0.075459 -0.369498 -0.012253 7.811689 -59.615283 -3.606120 -84.942068 82.448505 -91.652415 1.985352 -4.167195 7.540055 0.105420 0.341430 0.047967
-64.399452 46.800383 1.668954 -175.708418 -27.384585 0.813599 1.896356 15.791087 6.455951 0.111030 1.684513 0.653241 0.197318 2.772832 1.192133 1.562113 13.920912 5.937720 12.499388 22.644672 -1.051105 22.767454 7.343012 -5.113830 -4.668992 -0.414520 -3.159001 5.310275 -8.320591 -21.547189 -70.082532 -73.898866 115.155441 4.143730 10.257896 -15.154513 -7.772187 -8.530956 8.540342 -14.193966 -44.699402 74.061285 -30.782481 -18.777282 23.495509 -4.232552 15.455798 23.851563 14.757311 -58.058414 -25.553765 -158.938544 76.750991 -152.191975 -10.513075 -13.714404 -0.543027 0.084348 -0.379352 -0.012868 7.789297 -59.642292 -3.627940 -84.811646 82.456136 -91.530019 2.007329 -4.165085 7.527608 0.110847 0.340436 0.035695
-64.405364 46.807428 1.667315 -175.718071 -27.359503 0.816352 1.904635 15.766407 6.494179 0.109223 1.670479 0.653274 0.200333 2.766227 1.198398 1.573746 13.866121 5.987035 12.401111 22.672014 -0.963645 22.584250 7.325853 -4.910974 -4.709301 -0.415894 -3.176168 5.349824 -8.348704 -21.581430 -70.190978 -73.935525 115.280541 4.186475 10.285356 -15.034134 -7.736089 -8.554013 8.583593 -14.282801 -44.813669 74.237445 -30.416333 -18.669078 23.296588 -4.240398 15.604443 23.739268 14.770653 -58.079386 -25.569737 -158.973993 76.762312 -152.228939 -10.514286 -13.693203 -0.538806 0.061462 -0.396819 -0.008816 7.763513 -59.662574 -3.623435 -84.763645 82.451355 -91.472697 1.996268 -4.155193 7.520173 0.143464 0.333286 0.023802
